HIERARCHY
ROOT Hips
{
	OFFSET 0.000000 0.000000 0.000000
	CHANNELS 6 Xposition Yposition Zposition Zrotation Yrotation Xrotation 
	JOINT LowerBack
	{
		OFFSET 0.000000 0.000000 0.000000
		CHANNELS 3 Zrotation Yrotation Xrotation
		JOINT Spine
		{
			OFFSET 0.028270 2.035590 -0.193380
			CHANNELS 3 Zrotation Yrotation Xrotation
			JOINT Spine1
			{
				OFFSET 0.056720 2.048850 -0.042750
				CHANNELS 3 Zrotation Yrotation Xrotation
				JOINT Neck
				{
					OFFSET 0.000000 0.000000 0.000000
					CHANNELS 3 Zrotation Yrotation Xrotation
					JOINT Neck1
					{
						OFFSET -0.054170 1.746240 0.172020
						CHANNELS 3 Zrotation Yrotation Xrotation
						JOINT Head
						{
							OFFSET 0.104070 1.761360 -0.123970
							CHANNELS 3 Zrotation Yrotation Xrotation
							End Site
							{
								OFFSET 0.000000 0.000000 0.000000
							}
						}
					}
				}
				JOINT LeftShoulder
				{
					OFFSET 0.000000 0.000000 0.000000
					CHANNELS 3 Zrotation Yrotation Xrotation
					JOINT LeftArm
					{
						OFFSET 3.362410 1.200890 -0.311210
						CHANNELS 3 Zrotation Yrotation Xrotation
						JOINT LeftForeArm
						{
							OFFSET 4.983000 -0.000000 -0.000000
							CHANNELS 3 Zrotation Yrotation Xrotation
							JOINT LeftHand
							{
								OFFSET 3.483560 -0.000000 -0.000000
								CHANNELS 3 Zrotation Yrotation Xrotation
								JOINT LeftFingerBase
								{
									OFFSET 0.000000 0.000000 0.000000
									CHANNELS 3 Zrotation Yrotation Xrotation
									JOINT LeftHandIndex1
									{
										OFFSET 0.715260 -0.000000 -0.000000
										CHANNELS 3 Zrotation Yrotation Xrotation
										End Site
										{
											OFFSET 0.000000 0.000000 0.000000
										}
									}
								}
								JOINT LThumb
								{
									OFFSET 0.000000 0.000000 0.000000
									CHANNELS 3 Zrotation Yrotation Xrotation
									End Site
									{
										OFFSET 0.000000 0.000000 0.000000
									}
								}
							}
						}
					}
				}
				JOINT RightShoulder
				{
					OFFSET 0.000000 0.000000 0.000000
					CHANNELS 3 Zrotation Yrotation Xrotation
					JOINT RightArm
					{
						OFFSET -3.136600 1.374050 -0.404650
						CHANNELS 3 Zrotation Yrotation Xrotation
						JOINT RightForeArm
						{
							OFFSET -5.241900 -0.000000 -0.000000
							CHANNELS 3 Zrotation Yrotation Xrotation
							JOINT RightHand
							{
								OFFSET -3.444170 -0.000000 -0.000000
								CHANNELS 3 Zrotation Yrotation Xrotation
								JOINT RightFingerBase
								{
									OFFSET 0.000000 0.000000 0.000000
									CHANNELS 3 Zrotation Yrotation Xrotation
									JOINT RightHandIndex1
									{
										OFFSET -0.622530 -0.000000 -0.000000
										CHANNELS 3 Zrotation Yrotation Xrotation
										End Site
										{
											OFFSET 0.000000 0.000000 0.000000
										}
									}
								}
								JOINT RThumb
								{
									OFFSET 0.000000 0.000000 0.000000
									CHANNELS 3 Zrotation Yrotation Xrotation
									End Site
									{
										OFFSET 0.000000 0.000000 0.000000
									}
								}
							}
						}
					}
				}
			}
		}
	}
}
}
MOTION
Frames: 12
Frame Time: 0.008333
4.976000 17.124414 0.365289 176.034287 -79.548726 -159.498320 0.950121 -0.388458 -5.308941 -0.588780 -0.638769 -4.552758 -6.573669 -0.702659 -3.014302 7.585655 -0.643715 -1.439169 -3.899544 -0.348400 1.664825 0.000000 0.000000 0.000000 0.361977 0.041044 1.886127 -59.095643 -28.796219 8.355821 -0.410388 -76.957762 -0.020525 2.270906 5.581704 0.107311 -0.074479 0.428072 -0.000000 0.000000 0.000000 0.000000 0.000000 0.000000 0.000000 13.261222 4.827638 0.037816 73.878613 36.709782 17.840124 0.143263 56.459025 -0.029369 -3.709676 5.613740 -0.193379 -0.033783 -0.430249 0.000000 0.000000 0.000000 0.000000 0.000000 0.000000 0.000000 
4.972358 17.116714 0.336661 175.704673 -79.148026 -159.199402 0.915987 -0.411479 -5.292955 -0.605417 -0.663141 -4.540723 -6.643151 -0.738188 -2.917082 7.747364 -0.628044 -1.662394 -3.959004 -0.349592 1.599030 0.000000 0.000000 0.000000 0.049479 0.036000 2.037530 -58.853402 -27.699521 8.545382 -0.525874 -75.239951 -0.019822 2.171583 5.776333 0.107377 -0.080008 0.405890 -0.000000 0.000000 0.000000 0.000000 0.000000 0.000000 0.000000 13.843443 4.821350 0.178029 73.988043 35.777253 18.023226 0.248651 54.439609 -0.027466 -3.815811 5.233594 -0.186191 -0.022427 -0.407937 -0.000000 0.000000 0.000000 0.000000 0.000000 0.000000 0.000000 
4.967598 17.108694 0.306933 175.412663 -78.758213 -158.946489 0.890650 -0.437551 -5.282120 -0.620574 -0.691655 -4.527254 -6.715153 -0.777587 -2.810530 7.911757 -0.617132 -1.893243 -4.021914 -0.350964 1.530975 0.000000 0.000000 0.000000 -0.261337 0.080219 2.180842 -58.660912 -26.617928 8.768615 -0.651689 -73.487098 -0.018938 2.043628 5.926647 0.104744 -0.084951 0.384399 -0.000000 0.000000 0.000000 0.000000 0.000000 0.000000 0.000000 14.436960 4.796840 0.309993 74.078267 34.811583 18.136604 0.362897 52.439419 -0.025731 -3.922438 4.901977 -0.179902 -0.011495 -0.386489 -0.000000 0.000000 0.000000 0.000000 0.000000 0.000000 0.000000 
4.961779 17.100357 0.276040 175.155289 -78.380013 -158.736449 0.873326 -0.467562 -5.276049 -0.634176 -0.725067 -4.512409 -6.788541 -0.821566 -2.695109 8.078191 -0.611885 -2.131637 -4.087641 -0.352495 1.460740 0.000000 0.000000 0.000000 -0.565325 0.172547 2.314996 -58.521968 -25.549691 9.016481 -0.787895 -71.691534 -0.017890 1.887661 6.035380 0.099613 -0.089289 0.363532 -0.000000 0.000000 0.000000 0.000000 0.000000 0.000000 0.000000 15.038194 4.753783 0.433520 74.148274 33.818135 18.183630 0.485494 50.459545 -0.024016 -4.007197 4.617362 -0.173612 -0.001315 -0.365837 -0.000000 0.000000 0.000000 0.000000 0.000000 0.000000 0.000000 
4.955091 17.091839 0.244015 174.930867 -78.014420 -158.569496 0.865505 -0.501910 -5.271763 -0.645872 -0.763821 -4.495833 -6.863061 -0.870499 -2.571888 8.245217 -0.600492 -2.375556 -4.155059 -0.354132 1.388862 0.000000 0.000000 0.000000 -0.864289 0.324169 2.441514 -58.435715 -24.513722 9.291258 -0.935674 -69.832316 -0.016734 1.707019 6.107169 0.092282 -0.093187 0.343226 -0.000000 0.000000 0.000000 0.000000 0.000000 0.000000 0.000000 15.638844 4.706192 0.546508 74.199239 32.783346 18.129830 0.615029 48.518809 -0.022079 -4.021978 4.371824 -0.165323 0.007336 -0.345900 0.000000 0.000000 0.000000 0.000000 0.000000 0.000000 0.000000 
4.947774 17.083060 0.210896 174.753736 -77.663577 -158.460828 0.869234 -0.539804 -5.269220 -0.654871 -0.807211 -4.477035 -6.935814 -0.923447 -2.438729 8.411323 -0.615842 -2.629863 -4.223694 -0.355848 1.314256 0.000000 0.000000 0.000000 -1.146552 0.511327 2.554249 -58.412260 -23.485170 9.568635 -1.092820 -67.913292 -0.015523 1.508866 6.152546 0.083351 -0.096488 0.323312 -0.000000 0.000000 0.000000 0.000000 0.000000 0.000000 0.000000 16.238495 4.619520 0.651857 74.226280 31.749614 18.048153 0.752834 46.587344 -0.020130 -4.008677 4.178833 -0.157633 0.015352 -0.326712 0.000000 0.000000 0.000000 0.000000 0.000000 0.000000 0.000000 
4.939924 17.074170 0.176828 174.616123 -77.328070 -158.404252 0.886896 -0.580972 -5.264887 -0.660791 -0.855125 -4.456446 -7.007378 -0.980375 -2.300178 8.572708 -0.616275 -2.886459 -4.291169 -0.357536 1.239047 0.000000 0.000000 0.000000 -1.423346 0.761044 2.659193 -58.444966 -22.507496 9.867644 -1.261970 -65.898564 -0.014364 1.300675 6.180686 0.073417 -0.099627 0.303765 -0.000000 0.000000 0.000000 0.000000 0.000000 0.000000 0.000000 16.816595 4.540462 0.744116 74.236188 30.658703 17.826554 0.894659 44.721104 -0.017832 -3.885146 4.008913 -0.146545 0.021301 -0.308144 0.000000 0.000000 0.000000 0.000000 0.000000 0.000000 0.000000 
4.931626 17.065162 0.141889 174.514921 -77.009031 -158.396620 0.917236 -0.624380 -5.257879 -0.663696 -0.906352 -4.433201 -7.075867 -1.039803 -2.153575 8.728231 -0.630015 -3.149499 -4.357109 -0.359172 1.162268 0.000000 0.000000 0.000000 -1.688134 1.057316 2.751730 -58.539108 -21.570022 10.172891 -1.441041 -63.788055 -0.013318 1.090314 6.205952 0.063282 -0.102540 0.284446 -0.000000 0.000000 0.000000 0.000000 0.000000 0.000000 0.000000 17.373172 4.439737 0.825226 74.225029 29.543458 17.515340 1.041218 42.900859 -0.015396 -3.688983 3.871914 -0.134358 0.025974 -0.290249 0.000000 0.000000 0.000000 0.000000 0.000000 0.000000 0.000000 
4.922960 17.055983 0.106272 174.463067 -76.705946 -158.450953 0.965098 -0.667852 -5.248426 -0.662522 -0.959140 -4.408225 -7.139900 -1.099974 -2.002029 8.873068 -0.646445 -3.414815 -4.419694 -0.360682 1.085200 0.000000 0.000000 0.000000 -1.944060 1.398767 2.832237 -58.693697 -20.677892 10.483157 -1.629007 -61.574711 -0.012465 0.886069 6.243116 0.053243 -0.105348 0.265325 -0.000000 0.000000 0.000000 0.000000 0.000000 0.000000 0.000000 17.892339 4.330500 0.893726 74.195440 28.383336 17.081208 1.189873 41.147459 -0.012861 -3.416749 3.753162 -0.120471 0.029315 -0.273001 0.000000 0.000000 0.000000 0.000000 0.000000 0.000000 0.000000 
4.913922 17.046589 0.070095 174.462753 -76.417334 -158.568317 1.031927 -0.709506 -5.237115 -0.656906 -1.011733 -4.381718 -7.198145 -1.159001 -1.845755 9.004390 -0.674164 -3.682275 -4.478049 -0.362032 1.008032 0.000000 0.000000 0.000000 -2.191556 1.777059 2.898950 -58.907981 -19.825532 10.790682 -1.823280 -59.263158 -0.011849 0.693466 6.307661 0.043899 -0.108028 0.246384 -0.000000 0.000000 0.000000 0.000000 0.000000 0.000000 0.000000 18.367525 4.205083 0.950028 74.146640 27.185240 16.533579 1.339561 39.460814 -0.010359 -3.093110 3.651421 -0.105885 0.031752 -0.256439 0.000000 0.000000 0.000000 0.000000 0.000000 0.000000 0.000000 
4.904409 17.036916 0.033540 174.521879 -76.139884 -158.754413 1.119974 -0.747210 -5.225157 -0.646385 -1.062223 -4.354292 -7.249563 -1.214907 -1.686033 9.118949 -0.716951 -3.950447 -4.531393 -0.363202 0.931302 0.000000 0.000000 0.000000 -2.432597 2.183926 2.950764 -59.178980 -19.003915 11.088188 -2.020519 -56.865817 -0.011500 0.516265 6.413343 0.035250 -0.110524 0.227682 -0.000000 0.000000 0.000000 0.000000 0.000000 0.000000 0.000000 18.791645 4.061097 0.994556 74.079190 25.950382 15.876637 1.488827 37.843028 -0.008001 -2.743090 3.562667 -0.091499 0.033660 -0.240589 0.000000 0.000000 0.000000 0.000000 0.000000 0.000000 0.000000 
4.894365 17.026903 -0.003303 174.646777 -75.869101 -159.014260 1.231381 -0.779092 -5.214087 -0.630528 -1.108945 -4.326642 -7.293241 -1.265974 -1.524314 9.214207 -0.778552 -4.217928 -4.579204 -0.364190 0.855536 0.000000 0.000000 0.000000 -2.669260 2.610901 2.986726 -59.501841 -18.198550 11.367515 -2.216552 -54.403745 -0.011416 0.356069 6.570686 0.027395 -0.112732 0.209339 0.000000 0.000000 0.000000 0.000000 0.000000 0.000000 0.000000 19.159865 3.896378 1.028061 73.992973 24.683653 15.121656 1.636273 36.292428 -0.005884 -2.396387 3.486051 -0.078113 0.035437 -0.225499 0.000000 0.000000 0.000000 0.000000 0.000000 0.000000 0.000000 
